<mxfile host="app.diagrams.net" modified="2024-03-08T19:44:07.565Z" agent="Mozilla/5.0 (Windows NT 10.0; Win64; x64; rv:123.0) Gecko/20100101 Firefox/123.0" etag="4NEC8QOWNyDSgGr7JlB6" version="24.0.2" type="github">
  <diagram name="Page-1" id="4pdE0db35GPf6bk0FE4X">
    <mxGraphModel dx="963" dy="1076" grid="1" gridSize="10" guides="1" tooltips="1" connect="1" arrows="1" fold="1" page="1" pageScale="1" pageWidth="1600" pageHeight="900" background="none" math="0" shadow="0">
      <root>
        <mxCell id="0" />
        <mxCell id="1" parent="0" />
        <mxCell id="WsUoAYugIKho16CLf06q-19" value="" style="edgeStyle=orthogonalEdgeStyle;rounded=0;orthogonalLoop=1;jettySize=auto;html=1;" edge="1" parent="1" source="2" target="3">
          <mxGeometry relative="1" as="geometry" />
        </mxCell>
        <mxCell id="2" value="Start" style="whiteSpace=wrap;strokeWidth=2;" parent="1" vertex="1">
          <mxGeometry x="110" y="472" width="50.19193857965452" height="34" as="geometry" />
        </mxCell>
        <mxCell id="3" value="Choice 1" style="rounded=1;absoluteArcSize=1;arcSize=14;whiteSpace=wrap;strokeWidth=2;" parent="1" vertex="1">
          <mxGeometry x="260.1919385796545" y="472" width="76.29174664107487" height="34" as="geometry" />
        </mxCell>
        <mxCell id="WsUoAYugIKho16CLf06q-21" value="" style="edgeStyle=orthogonalEdgeStyle;rounded=0;orthogonalLoop=1;jettySize=auto;html=1;" edge="1" parent="1" source="4" target="3">
          <mxGeometry relative="1" as="geometry" />
        </mxCell>
        <mxCell id="4" value="Sub-choice 1" style="rounded=1;absoluteArcSize=1;arcSize=14;whiteSpace=wrap;strokeWidth=2;" parent="1" vertex="1">
          <mxGeometry x="436.4836852207294" y="514.6666666666667" width="106.40690978886758" height="34" as="geometry" />
        </mxCell>
        <mxCell id="WsUoAYugIKho16CLf06q-20" value="" style="edgeStyle=orthogonalEdgeStyle;rounded=0;orthogonalLoop=1;jettySize=auto;html=1;" edge="1" parent="1" source="5" target="3">
          <mxGeometry relative="1" as="geometry" />
        </mxCell>
        <mxCell id="5" value="Sub-choice 2" style="rounded=1;absoluteArcSize=1;arcSize=14;whiteSpace=wrap;strokeWidth=2;" parent="1" vertex="1">
          <mxGeometry x="436.4836852207294" y="429.3333333333333" width="106.40690978886758" height="34" as="geometry" />
        </mxCell>
        <mxCell id="WsUoAYugIKho16CLf06q-33" value="" style="rounded=0;orthogonalLoop=1;jettySize=auto;html=1;" edge="1" parent="1" source="6" target="4">
          <mxGeometry relative="1" as="geometry" />
        </mxCell>
        <mxCell id="6" value="Outcome 1" style="rounded=1;absoluteArcSize=1;arcSize=14;whiteSpace=wrap;strokeWidth=2;" parent="1" vertex="1">
          <mxGeometry x="642.890595009597" y="568" width="93.3570057581574" height="34" as="geometry" />
        </mxCell>
        <mxCell id="WsUoAYugIKho16CLf06q-32" value="" style="rounded=0;orthogonalLoop=1;jettySize=auto;html=1;" edge="1" parent="1" source="7" target="4">
          <mxGeometry relative="1" as="geometry" />
        </mxCell>
        <mxCell id="7" value="Outcome 2" style="rounded=1;absoluteArcSize=1;arcSize=14;whiteSpace=wrap;strokeWidth=2;" parent="1" vertex="1">
          <mxGeometry x="642.890595009597" y="504" width="93.3570057581574" height="34" as="geometry" />
        </mxCell>
        <mxCell id="WsUoAYugIKho16CLf06q-31" value="" style="rounded=0;orthogonalLoop=1;jettySize=auto;html=1;" edge="1" parent="1" source="8" target="5">
          <mxGeometry relative="1" as="geometry" />
        </mxCell>
        <mxCell id="8" value="Outcome 3" style="rounded=1;absoluteArcSize=1;arcSize=14;whiteSpace=wrap;strokeWidth=2;" parent="1" vertex="1">
          <mxGeometry x="642.890595009597" y="440" width="93.3570057581574" height="34" as="geometry" />
        </mxCell>
        <mxCell id="WsUoAYugIKho16CLf06q-30" value="" style="rounded=0;orthogonalLoop=1;jettySize=auto;html=1;" edge="1" parent="1" source="9" target="5">
          <mxGeometry relative="1" as="geometry" />
        </mxCell>
        <mxCell id="9" value="Outcome 4" style="rounded=1;absoluteArcSize=1;arcSize=14;whiteSpace=wrap;strokeWidth=2;" parent="1" vertex="1">
          <mxGeometry x="642.890595009597" y="376" width="93.3570057581574" height="34" as="geometry" />
        </mxCell>
      </root>
    </mxGraphModel>
  </diagram>
</mxfile>
